# xmcd
#
# Track frame offsets:
#	150
#	21291
#	22307
#	38529
#	51974
#	56083
#	72201
#	88407
#	106266
#	107037
#	122068
#	139241
#	156242
#	159246
#	183169
#	197680
#	211047
#	213360
#	228264
#	241769
#	260330
#	261756
#	276900
#	291314
#	307599
#
# Disc length: 4301 seconds
#
# Revision: 0
# Processed by: cddbd v1.5.2PL0 Copyright (c) Steve Scherf et al.
# Submitted via: EZCDAudioConverter 1.2.2.1
#
DISCID=6310cb19
DTITLE=Various Artist - Country Roads
DYEAR=2007
DGENRE=Country
TTITLE0=Hank Williams Jr - Why Don't We All Get A Long Neck? (Hank Williams Jr
TTITLE0=)
TTITLE1=Jingle Radio 1 - The Big Cactus Country 1
TTITLE2=Rodney Atkins - If You're Going Through Hell (Rodney Atkins)
TTITLE3=Blue County - Good Little Girls (Blue County)
TTITLE4=Jingle Radio 2 - The Big Cactus Country 2
TTITLE5=Bomshel - Bomshel Stomp (Bomshel)
TTITLE6=Steve Holy - Brand New Girlfriend (Steve Holy)
TTITLE7=Armadillo - Long Way To Hollywood (Armadillo)
TTITLE8=Jingle Radio 3 - The Big Cactus Country 3
TTITLE9=Big and Rich - Save A Horse, Ride A cowboy (Big and Rich)
TTITLE10=Tim McGraw - When The Stars Go Blue (Tim McGraw)
TTITLE11=Blake Shelton - Austin (Blake Shelton)
TTITLE12=Jingle Radio 4 - The Big Cactus Country 4
TTITLE13=Dwight Yoakam - Long White Cadillac (Dwight Yoakam)
TTITLE14=Lane Turner - Let You Go (Lane Turner)
TTITLE15=Ray Scott - My Kind Of Music (Ray Scott)
TTITLE16=Jingle Radio 5 - The Big Cactus Country 5
TTITLE17=Shannon Brown - Corn Fed (Shannon Brown)
TTITLE18=John Anderson - Swingin' (John Anderson)
TTITLE19=Mark O'Connor - The Devil Comes Back To Georgia (Mark O'Connor)
TTITLE20=Jingle Radio 6 - The Big Cactus Country 6
TTITLE21=Southern Pacific - Reno Bound (Southern Pacific)
TTITLE22=Ian Scott - Jolie Blonde (Accoustique) (Ian Scott)
TTITLE23=Youpi Wahou - Lachez Les Fauves (Youpi Wahou)
TTITLE24=Randy Travis - Before You Kill Us All (Randy Travis)
EXTD=
EXTT0=
EXTT1=
EXTT2=
EXTT3=
EXTT4=
EXTT5=
EXTT6=
EXTT7=
EXTT8=
EXTT9=
EXTT10=
EXTT11=
EXTT12=
EXTT13=
EXTT14=
EXTT15=
EXTT16=
EXTT17=
EXTT18=
EXTT19=
EXTT20=
EXTT21=
EXTT22=
EXTT23=
EXTT24=
PLAYORDER=
